<svg width="40" height="40" viewBox="0 0 40 40" fill="none" xmlns="http://www.w3.org/2000/svg">
    <circle cx="20" cy="20" r="12" fill="#2196F3"/>
    <path d="M20 12C23.866 12 27 15.134 27 19C27 22.866 23.866 26 20 26C16.134 26 13 22.866 13 19C13 15.134 16.134 12 20 12ZM20 14C17.2386 14 15 16.2386 15 19C15 21.7614 17.2386 24 20 24C22.7614 24 25 21.7614 25 19C25 16.2386 22.7614 14 20 14Z" fill="white"/>
    <path d="M20 7V10M20 28V31M31 19H28M12 19H9M28.2843 10.7157L26.1213 12.8787M13.8787 25.1213L11.7157 27.2843M28.2843 27.2843L26.1213 25.1213M13.8787 12.8787L11.7157 10.7157" stroke="#2196F3" stroke-width="2" stroke-linecap="round"/>
</svg>
